<svg height="30" viewBox="0 0 161 33" fill="none" xmlns="http://www.w3.org/2000/svg" style="display:block;">
          <path d="M10.9126 0H0V10.7814H10.9126V0Z" fill="#F6DE39"></path>
          <path d="M32.6919 0H21.7793V10.7814H32.6919V0Z" fill="#F6DE39"></path>
          <path d="M0.0721385 21.6219H0V32.4099H10.9126L21.694 21.6219H21.7661V10.7814H10.9126L0.0721385 21.6219Z" fill="#F6DE39"></path>
          <path d="M32.6919 21.6219H21.7793V32.4033H32.6919V21.6219Z" fill="#F6DE39"></path>
          <path d="M49.2181 3.69874H51.6315L55.9663 14.3884H53.6317L52.7136 12.0668H48.0114L47.0933 14.3884H44.8767L49.2116 3.69874H49.2181ZM51.9463 10.1322L50.3592 6.13177L48.7722 10.1322H51.9463Z" fill="#fff"></path>
          <path d="M58.4584 3.69874V10.1912C58.4584 11.5487 59.4224 12.5455 60.9046 12.5455C62.3867 12.5455 63.3507 11.5553 63.3507 10.1912V3.69874H65.5345V10.1912C65.5345 12.7292 63.613 14.5457 60.9046 14.5457C58.1961 14.5457 56.2746 12.7292 56.2746 10.1912V3.69874H58.4584Z" fill="#fff"></path>
          <path d="M69.6202 5.63992H66.3543V3.69874H75.0896V5.63992H71.804V14.3949H69.6202V5.63992Z" fill="#fff"></path>
          <path d="M76.0668 3.69874H78.2506V8.07951H83.2019V3.69874H85.3857V14.3884H83.2019V10.0076H78.2506V14.3884H76.0668V3.69874Z" fill="#fff"></path>
          <path d="M92.3504 3.5479C94.8424 3.5479 96.6262 5.04314 97.3476 6.64986L95.3343 7.43027C94.8293 6.37442 93.7472 5.55467 92.3569 5.55467C90.4617 5.55467 88.9992 7.08269 88.9992 9.0501C88.9992 11.0175 90.4682 12.5455 92.3569 12.5455C93.7472 12.5455 94.8293 11.7192 95.3343 10.6699L97.3476 11.4503C96.6328 13.0571 94.8424 14.5523 92.3504 14.5523C89.1763 14.5523 86.7301 12.1521 86.7301 9.05666C86.7301 5.96127 89.1763 3.55446 92.3504 3.55446V3.5479Z" fill="#fff"></path>
          <path d="M103.978 3.5479C107.152 3.5479 109.598 5.94815 109.598 9.05011C109.598 12.1521 107.152 14.5457 103.978 14.5457C100.804 14.5457 98.3575 12.1455 98.3575 9.05011C98.3575 5.95471 100.804 3.5479 103.978 3.5479ZM103.978 12.5455C105.886 12.5455 107.336 11.0175 107.336 9.05011C107.336 7.08269 105.886 5.55467 103.978 5.55467C102.069 5.55467 100.62 7.08269 100.62 9.05011C100.62 11.0175 102.089 12.5455 103.978 12.5455Z" fill="#fff"></path>
          <path d="M110.942 3.69874H115.192C118.34 3.69874 120.661 6.02029 120.661 9.04354C120.661 12.0668 118.34 14.3884 115.192 14.3884H110.942V3.69874ZM115.008 12.4537C117.009 12.4537 118.399 11.0175 118.399 9.0501C118.399 7.08269 117.009 5.64648 115.008 5.64648H113.133V12.4603H115.008V12.4537Z" fill="#fff"></path>
          <path d="M122.006 3.69874H129.121V5.63992H124.19V8.08607H128.971V10.0076H124.19V12.4537H129.121V14.3949H122.006V3.69874Z" fill="#fff"></path>
          <path d="M47.3032 20.6185H44.0373V18.6773H52.7726V20.6185H49.487V29.3735H47.3032V20.6185Z" fill="#fff"></path>
          <path d="M53.7497 18.6773H60.8652V20.6185H55.9336V23.0646H60.7144V24.9861H55.9336V27.4323H60.8652V29.3735H53.7497V18.6839V18.6773Z" fill="#fff"></path>
          <path d="M67.5872 18.5265C70.0793 18.5265 71.8631 20.0217 72.5844 21.6284L70.5711 22.4088C70.0662 21.353 68.9841 20.5332 67.5938 20.5332C65.6985 20.5332 64.236 22.0613 64.236 24.0287C64.236 25.9961 65.7051 27.5241 67.5938 27.5241C68.9841 27.5241 70.0662 26.6978 70.5711 25.6485L72.5844 26.4289C71.8696 28.0356 70.0793 29.5309 67.5872 29.5309C64.4131 29.5309 61.967 27.1306 61.967 24.0352C61.967 20.9398 64.4131 18.533 67.5872 18.533V18.5265Z" fill="#fff"></path>
          <path d="M73.9288 18.6773H76.1127V23.0581H81.064V18.6773H83.2478V29.3669H81.064V24.9861H76.1127V29.3669H73.9288V18.6773Z" fill="#fff"></path>
          <path d="M84.9005 18.6773H87.0253L92.2783 25.7469V18.6773H94.4621V29.3669H92.3373L87.0843 22.3105V29.3669H84.9005V18.6773Z" fill="#fff"></path>
          <path d="M101.427 18.5265C104.601 18.5265 107.047 20.9267 107.047 24.0287C107.047 27.1306 104.601 29.5243 101.427 29.5243C98.2526 29.5243 95.8065 27.1241 95.8065 24.0287C95.8065 20.9333 98.2526 18.5265 101.427 18.5265ZM101.427 27.5176C103.335 27.5176 104.784 25.9895 104.784 24.0221C104.784 22.0547 103.335 20.5267 101.427 20.5267C99.5183 20.5267 98.069 22.0547 98.069 24.0221C98.069 25.9895 99.538 27.5176 101.427 27.5176Z" fill="#fff"></path>
          <path d="M108.391 18.6773H110.575V27.4323H115.507V29.3735H108.391V18.6839V18.6773Z" fill="#fff"></path>
          <path d="M121.403 18.5265C124.577 18.5265 127.023 20.9267 127.023 24.0287C127.023 27.1306 124.577 29.5243 121.403 29.5243C118.228 29.5243 115.782 27.1241 115.782 24.0287C115.782 20.9333 118.228 18.5265 121.403 18.5265ZM121.403 27.5176C123.311 27.5176 124.76 25.9895 124.76 24.0221C124.76 22.0547 123.311 20.5267 121.403 20.5267C119.494 20.5267 118.045 22.0547 118.045 24.0221C118.045 25.9895 119.514 27.5176 121.403 27.5176Z" fill="#fff"></path>
          <path d="M133.66 18.5265C136.152 18.5265 137.935 20.0217 138.657 21.6284L136.643 22.4088C136.138 21.353 135.056 20.5332 133.666 20.5332C131.771 20.5332 130.308 22.0613 130.308 24.0287C130.308 25.9961 131.777 27.5241 133.666 27.5241C135.365 27.5241 136.493 26.4224 136.735 25.2944H132.781V23.3532H139.149C139.503 27.111 136.722 29.5243 133.666 29.5243C130.61 29.5243 128.046 27.1241 128.046 24.0287C128.046 20.9333 130.492 18.5265 133.666 18.5265H133.66Z" fill="#fff"></path>
          <path d="M140.513 18.6773H142.696V29.3669H140.513V18.6773Z" fill="#fff"></path>
          <path d="M144.349 18.6773H151.465V20.6185H146.533V23.0646H151.314V24.9861H146.533V27.4323H151.465V29.3735H144.349V18.6839V18.6773Z" fill="#fff"></path>
          <path d="M156.967 27.629C158.036 27.629 158.737 27.0782 158.737 26.3896C158.737 24.3303 152.947 25.642 152.947 21.6875C152.947 19.884 154.671 18.5265 156.875 18.5265C159.078 18.5265 160.646 19.7659 160.908 21.5038L158.692 21.9498C158.521 21.0316 157.852 20.4086 156.796 20.4086C155.852 20.4086 155.209 20.9005 155.209 21.5694C155.209 23.5368 161 22.2252 161 26.3371C161 28.1734 159.197 29.5309 156.908 29.5309C154.619 29.5309 152.98 28.357 152.704 26.5535L154.921 26.1076C155.091 27.0519 155.773 27.6356 156.967 27.6356V27.629Z" fill="#fff"></path>
        </svg>